<svg width="32" height="32" viewBox="0 0 32 32" fill="none" xmlns="http://www.w3.org/2000/svg">
<path d="M8.56816 14.3154L10.4742 12.4101C11.1608 11.7227 12.0182 10.8527 11.9322 9.88475L11.6082 6.22608C11.5015 5.02475 10.2548 3.66675 9.04816 3.66675H5.91083C4.68216 3.66675 3.52349 4.70275 3.68149 6.54008C3.78483 7.74808 3.12149 14.3827 10.3695 21.6307C17.6175 28.8787 24.2522 28.2154 25.4602 28.3187C27.2975 28.4767 28.3335 27.3181 28.3335 26.0894V22.9521C28.3335 21.7454 26.9755 20.4987 25.7735 20.3921L22.1155 20.0681C21.1475 19.9821 20.2775 20.8387 19.5902 21.5261L17.6848 23.4321C15.9915 22.5254 14.2128 21.2734 12.4702 19.5301C10.7268 17.7874 9.47416 16.0094 8.56816 14.3154Z" stroke="#FFF5E5" stroke-linecap="round" stroke-linejoin="round"/>
</svg>
