<svg width="21" height="18" viewBox="0 0 21 18" fill="none" xmlns="http://www.w3.org/2000/svg">
<path d="M3.8033 3.07001H6.7193M5.2613 4.52801V1.61201M9.2058 16.556H11.0838M10.1448 17.495V15.617M2.0933 12.182H3.3828M2.7383 12.827V11.5375M4.2803 16.2615H5.5698M4.9253 16.9065V15.617M18.6033 9.85501H19.8928M19.2478 10.5V9.21051M11.7803 1.51401H13.0698M12.4253 2.15851V0.869507M18.4148 1.24001C18.9848 1.24001 19.4148 1.74001 19.1848 2.67001L16.3948 15.82C16.1998 16.755 15.6348 16.98 14.8548 16.545L8.1998 11.63C8.17399 11.6115 8.15297 11.5871 8.13846 11.5588C8.12396 11.5306 8.11639 11.4993 8.11639 11.4675C8.11639 11.4357 8.12396 11.4044 8.13846 11.3762C8.15297 11.3479 8.17399 11.3235 8.1998 11.305L15.8848 4.36501C16.2348 4.05501 15.8098 3.90501 15.3498 4.18501L5.7048 10.27C5.67555 10.2891 5.64234 10.3012 5.60769 10.3056C5.57303 10.3099 5.53785 10.3063 5.5048 10.295L1.4098 9.00001C0.499801 8.73501 0.4998 8.11001 1.6148 7.66501L17.9998 1.34501C18.1299 1.28317 18.2709 1.24749 18.4148 1.24001Z" stroke="#FFF5E5" stroke-linecap="round" stroke-linejoin="round"/>
</svg>
